<svg width="12" height="15" viewBox="0 0 12 15" fill="none" xmlns="http://www.w3.org/2000/svg">
<path d="M6.00016 0C4.40936 0.00178663 2.88424 0.634518 1.75938 1.75938C0.634518 2.88424 0.00178663 4.40936 0 6.00016C0 8.44147 1.7723 10.4688 3.6496 12.6146C4.24361 13.2941 4.85863 13.9969 5.40614 14.7079C5.47621 14.7988 5.56619 14.8724 5.66918 14.923C5.77216 14.9737 5.88539 15 6.00016 15C6.11492 15 6.22815 14.9737 6.33113 14.923C6.43412 14.8724 6.52411 14.7988 6.59417 14.7079C7.14169 13.9969 7.7567 13.2941 8.35072 12.6146C10.228 10.4688 12.0003 8.44147 12.0003 6.00016C11.9985 4.40936 11.3658 2.88424 10.2409 1.75938C9.11607 0.634518 7.59095 0.00178663 6.00016 0ZM6.00016 8.25022C5.55514 8.25022 5.12011 8.11825 4.75009 7.87101C4.38007 7.62377 4.09167 7.27236 3.92137 6.86122C3.75107 6.45007 3.70651 5.99766 3.79333 5.56119C3.88015 5.12472 4.09445 4.7238 4.40912 4.40912C4.7238 4.09445 5.12472 3.88015 5.56119 3.79333C5.99766 3.70651 6.45007 3.75107 6.86122 3.92137C7.27236 4.09167 7.62377 4.38007 7.87101 4.75009C8.11825 5.12011 8.25021 5.55514 8.25022 6.00016C8.25021 6.59691 8.01316 7.16922 7.59119 7.59119C7.16922 8.01316 6.59691 8.25022 6.00016 8.25022Z" fill="#B2B2B2"/>
</svg>
