<svg width="12" height="12" viewBox="0 0 12 12" fill="none" xmlns="http://www.w3.org/2000/svg">
<path d="M10.2343 1.71429H9.21429V0.428571C9.21429 0.314907 9.16913 0.205898 9.08876 0.125526C9.00839 0.0451529 8.89938 0 8.78571 0H4.34143C3.19036 0.00113462 2.08676 0.458898 1.27283 1.27283C0.458898 2.08676 0.00113462 3.19036 0 4.34143V11.5714C0 11.6851 0.0451529 11.7941 0.125526 11.8745C0.205898 11.9548 0.314907 12 0.428571 12C0.542236 12 0.651244 11.9548 0.731617 11.8745C0.81199 11.7941 0.857143 11.6851 0.857143 11.5714V4.34143C0.858277 3.41769 1.22573 2.5321 1.87892 1.87892C2.5321 1.22573 3.41769 0.858277 4.34143 0.857143H8.35714V1.71429H7.34143C6.87199 1.71429 6.42179 1.90077 6.08985 2.23271C5.75791 2.56465 5.57143 3.01485 5.57143 3.48429V3.85714C5.57143 3.97081 5.61658 4.07982 5.69695 4.16019C5.77733 4.24056 5.88634 4.28571 6 4.28571H11.5714C11.6851 4.28571 11.7941 4.24056 11.8745 4.16019C11.9548 4.07982 12 3.97081 12 3.85714V3.48429C12 3.01559 11.8141 2.56604 11.4831 2.23422C11.1521 1.9024 10.703 1.71542 10.2343 1.71429ZM6.42857 3.42857C6.44378 3.19661 6.5465 2.97909 6.71596 2.81997C6.88542 2.66085 7.10897 2.57202 7.34143 2.57143H10.2343C10.466 2.5731 10.6885 2.66241 10.857 2.82142C11.0256 2.98043 11.1277 3.19735 11.1429 3.42857H6.42857Z" fill="#6E6E6E"/>
</svg>
